<mxfile host="Electron" agent="Mozilla/5.0 (Macintosh; Intel Mac OS X 10_15_7) AppleWebKit/537.36 (KHTML, like Gecko) draw.io/28.1.2 Chrome/138.0.7204.243 Electron/37.4.0 Safari/537.36" version="28.1.2">
  <diagram name="Page-1" id="VpRImV_lAUAAagEEaz_6">
    <mxGraphModel dx="632" dy="571" grid="1" gridSize="10" guides="1" tooltips="1" connect="1" arrows="1" fold="1" page="1" pageScale="1" pageWidth="850" pageHeight="1100" math="0" shadow="0">
      <root>
        <mxCell id="0" />
        <mxCell id="1" parent="0" />
        <mxCell id="4UaJMtBj_h-Qflq0AI8P-73" value="" style="rounded=1;whiteSpace=wrap;html=1;fillColor=#d5e8d4;strokeColor=#82b366;" parent="1" vertex="1">
          <mxGeometry x="120" y="170" width="410" height="240" as="geometry" />
        </mxCell>
        <mxCell id="4UaJMtBj_h-Qflq0AI8P-37" value="" style="endArrow=none;html=1;rounded=0;exitX=0;exitY=0;exitDx=0;exitDy=0;" parent="1" source="4UaJMtBj_h-Qflq0AI8P-54" edge="1">
          <mxGeometry width="50" height="50" relative="1" as="geometry">
            <mxPoint x="250" y="220" as="sourcePoint" />
            <mxPoint x="210" y="220" as="targetPoint" />
            <Array as="points">
              <mxPoint x="250" y="220" />
              <mxPoint x="210" y="220" />
            </Array>
          </mxGeometry>
        </mxCell>
        <mxCell id="4UaJMtBj_h-Qflq0AI8P-38" value="" style="endArrow=none;html=1;rounded=0;exitX=1;exitY=0;exitDx=0;exitDy=0;" parent="1" source="4UaJMtBj_h-Qflq0AI8P-54" edge="1">
          <mxGeometry width="50" height="50" relative="1" as="geometry">
            <mxPoint x="310" y="220" as="sourcePoint" />
            <mxPoint x="350" y="200" as="targetPoint" />
            <Array as="points">
              <mxPoint x="310" y="220" />
              <mxPoint x="350" y="220" />
            </Array>
          </mxGeometry>
        </mxCell>
        <mxCell id="4UaJMtBj_h-Qflq0AI8P-39" value="mux" style="shape=trapezoid;perimeter=trapezoidPerimeter;whiteSpace=wrap;html=1;fixedSize=1;direction=west;" parent="1" vertex="1">
          <mxGeometry x="140" y="340" width="280" height="20" as="geometry" />
        </mxCell>
        <mxCell id="4UaJMtBj_h-Qflq0AI8P-40" value="" style="endArrow=none;html=1;rounded=0;entryX=0.75;entryY=1;entryDx=0;entryDy=0;" parent="1" edge="1">
          <mxGeometry width="50" height="50" relative="1" as="geometry">
            <mxPoint x="210" y="200" as="sourcePoint" />
            <mxPoint x="209" y="340" as="targetPoint" />
          </mxGeometry>
        </mxCell>
        <mxCell id="4UaJMtBj_h-Qflq0AI8P-41" value="" style="endArrow=none;html=1;rounded=0;entryX=0.25;entryY=1;entryDx=0;entryDy=0;" parent="1" target="4UaJMtBj_h-Qflq0AI8P-39" edge="1">
          <mxGeometry width="50" height="50" relative="1" as="geometry">
            <mxPoint x="350" y="220" as="sourcePoint" />
            <mxPoint x="400" y="290" as="targetPoint" />
          </mxGeometry>
        </mxCell>
        <mxCell id="4UaJMtBj_h-Qflq0AI8P-48" value="&lt;span data-huuid=&quot;17853853973419381185&quot;&gt;∧&lt;/span&gt;" style="rounded=0;whiteSpace=wrap;html=1;" parent="1" vertex="1">
          <mxGeometry x="410" y="300" width="40" height="20" as="geometry" />
        </mxCell>
        <mxCell id="4UaJMtBj_h-Qflq0AI8P-49" value="" style="endArrow=none;html=1;rounded=0;entryX=0.25;entryY=0;entryDx=0;entryDy=0;exitX=0.5;exitY=0;exitDx=0;exitDy=0;" parent="1" target="4UaJMtBj_h-Qflq0AI8P-48" edge="1">
          <mxGeometry width="50" height="50" relative="1" as="geometry">
            <mxPoint x="280" y="270" as="sourcePoint" />
            <mxPoint x="420" y="380" as="targetPoint" />
            <Array as="points">
              <mxPoint x="280" y="280" />
              <mxPoint x="420" y="280" />
            </Array>
          </mxGeometry>
        </mxCell>
        <mxCell id="4UaJMtBj_h-Qflq0AI8P-50" value="" style="endArrow=none;html=1;rounded=0;exitX=0.75;exitY=0;exitDx=0;exitDy=0;" parent="1" source="4UaJMtBj_h-Qflq0AI8P-48" edge="1">
          <mxGeometry width="50" height="50" relative="1" as="geometry">
            <mxPoint x="430" y="320" as="sourcePoint" />
            <mxPoint x="440" y="200" as="targetPoint" />
          </mxGeometry>
        </mxCell>
        <mxCell id="4UaJMtBj_h-Qflq0AI8P-51" value="" style="endArrow=none;html=1;rounded=0;entryX=0.5;entryY=1;entryDx=0;entryDy=0;exitX=0;exitY=0.5;exitDx=0;exitDy=0;" parent="1" source="4UaJMtBj_h-Qflq0AI8P-39" target="4UaJMtBj_h-Qflq0AI8P-48" edge="1">
          <mxGeometry width="50" height="50" relative="1" as="geometry">
            <mxPoint x="430" y="340" as="sourcePoint" />
            <mxPoint x="480" y="290" as="targetPoint" />
            <Array as="points">
              <mxPoint x="430" y="350" />
            </Array>
          </mxGeometry>
        </mxCell>
        <mxCell id="4UaJMtBj_h-Qflq0AI8P-53" value="" style="endArrow=none;html=1;rounded=0;textShadow=0;" parent="1" edge="1">
          <mxGeometry width="50" height="50" relative="1" as="geometry">
            <mxPoint x="240" y="240" as="sourcePoint" />
            <mxPoint x="240" y="240" as="targetPoint" />
            <Array as="points">
              <mxPoint x="230" y="240" />
              <mxPoint x="230" y="260" />
              <mxPoint x="260" y="270" />
              <mxPoint x="300" y="270" />
              <mxPoint x="330" y="260" />
              <mxPoint x="330" y="240" />
              <mxPoint x="290" y="240" />
              <mxPoint x="280" y="243" />
              <mxPoint x="270" y="240" />
            </Array>
          </mxGeometry>
        </mxCell>
        <mxCell id="4UaJMtBj_h-Qflq0AI8P-54" value="&amp;gt;" style="text;html=1;align=center;verticalAlign=middle;whiteSpace=wrap;rounded=0;labelBackgroundColor=none;" parent="1" vertex="1">
          <mxGeometry x="250" y="240" width="60" height="30" as="geometry" />
        </mxCell>
        <mxCell id="4UaJMtBj_h-Qflq0AI8P-60" value="" style="endArrow=none;html=1;rounded=0;" parent="1" edge="1" source="wEEqIZ8pULyqs5KTAqP_-5">
          <mxGeometry width="50" height="50" relative="1" as="geometry">
            <mxPoint x="280" y="400" as="sourcePoint" />
            <mxPoint x="280" y="360" as="targetPoint" />
          </mxGeometry>
        </mxCell>
        <mxCell id="4UaJMtBj_h-Qflq0AI8P-64" value="&lt;span data-huuid=&quot;17571129671319370533&quot;&gt;∨&lt;/span&gt;" style="rounded=0;whiteSpace=wrap;html=1;" parent="1" vertex="1">
          <mxGeometry x="460" y="300" width="40" height="20" as="geometry" />
        </mxCell>
        <mxCell id="4UaJMtBj_h-Qflq0AI8P-67" value="" style="endArrow=none;html=1;rounded=0;entryX=0.25;entryY=0;entryDx=0;entryDy=0;" parent="1" target="4UaJMtBj_h-Qflq0AI8P-64" edge="1">
          <mxGeometry width="50" height="50" relative="1" as="geometry">
            <mxPoint x="440" y="280" as="sourcePoint" />
            <mxPoint x="310" y="180" as="targetPoint" />
            <Array as="points">
              <mxPoint x="470" y="280" />
            </Array>
          </mxGeometry>
        </mxCell>
        <mxCell id="4UaJMtBj_h-Qflq0AI8P-68" value="" style="endArrow=none;html=1;rounded=0;entryX=0.5;entryY=1;entryDx=0;entryDy=0;" parent="1" target="4UaJMtBj_h-Qflq0AI8P-64" edge="1">
          <mxGeometry width="50" height="50" relative="1" as="geometry">
            <mxPoint x="480" y="380" as="sourcePoint" />
            <mxPoint x="480" y="330" as="targetPoint" />
          </mxGeometry>
        </mxCell>
        <mxCell id="325euitBwvf_rdHyh47d-2" value="1" style="text;html=1;align=center;verticalAlign=middle;whiteSpace=wrap;rounded=0;" parent="1" vertex="1">
          <mxGeometry x="340" y="340" width="20" height="20" as="geometry" />
        </mxCell>
        <mxCell id="325euitBwvf_rdHyh47d-3" value="0" style="text;html=1;align=center;verticalAlign=middle;whiteSpace=wrap;rounded=0;" parent="1" vertex="1">
          <mxGeometry x="200" y="340" width="20" height="20" as="geometry" />
        </mxCell>
        <mxCell id="wEEqIZ8pULyqs5KTAqP_-1" value="dl_a" style="rounded=0;whiteSpace=wrap;html=1;" vertex="1" parent="1">
          <mxGeometry x="190" y="180" width="40" height="20" as="geometry" />
        </mxCell>
        <mxCell id="wEEqIZ8pULyqs5KTAqP_-2" value="dl_b" style="rounded=0;whiteSpace=wrap;html=1;" vertex="1" parent="1">
          <mxGeometry x="330" y="180" width="40" height="20" as="geometry" />
        </mxCell>
        <mxCell id="wEEqIZ8pULyqs5KTAqP_-3" value="p_b" style="rounded=0;whiteSpace=wrap;html=1;" vertex="1" parent="1">
          <mxGeometry x="420" y="180" width="40" height="20" as="geometry" />
        </mxCell>
        <mxCell id="wEEqIZ8pULyqs5KTAqP_-4" value="p_a" style="rounded=0;whiteSpace=wrap;html=1;" vertex="1" parent="1">
          <mxGeometry x="470" y="180" width="40" height="20" as="geometry" />
        </mxCell>
        <mxCell id="wEEqIZ8pULyqs5KTAqP_-6" value="" style="endArrow=none;html=1;rounded=0;" edge="1" parent="1" target="wEEqIZ8pULyqs5KTAqP_-5">
          <mxGeometry width="50" height="50" relative="1" as="geometry">
            <mxPoint x="280" y="400" as="sourcePoint" />
            <mxPoint x="280" y="360" as="targetPoint" />
          </mxGeometry>
        </mxCell>
        <mxCell id="wEEqIZ8pULyqs5KTAqP_-5" value="min(dl_a, dl_b)" style="rounded=0;whiteSpace=wrap;html=1;" vertex="1" parent="1">
          <mxGeometry x="230" y="380" width="100" height="20" as="geometry" />
        </mxCell>
        <mxCell id="wEEqIZ8pULyqs5KTAqP_-7" value="" style="endArrow=none;html=1;rounded=0;entryX=0.75;entryY=0;entryDx=0;entryDy=0;exitX=0.5;exitY=1;exitDx=0;exitDy=0;" edge="1" parent="1" source="wEEqIZ8pULyqs5KTAqP_-4" target="4UaJMtBj_h-Qflq0AI8P-64">
          <mxGeometry width="50" height="50" relative="1" as="geometry">
            <mxPoint x="340" y="380" as="sourcePoint" />
            <mxPoint x="390" y="330" as="targetPoint" />
          </mxGeometry>
        </mxCell>
        <mxCell id="wEEqIZ8pULyqs5KTAqP_-9" value="p_a ∨&amp;nbsp;b_b" style="rounded=0;whiteSpace=wrap;html=1;" vertex="1" parent="1">
          <mxGeometry x="440" y="380" width="70" height="20" as="geometry" />
        </mxCell>
      </root>
    </mxGraphModel>
  </diagram>
</mxfile>
